<svg xmlns="http://www.w3.org/2000/svg" width="147.812" height="28" viewBox="0 0 147.812 28">
  <g id="Сгруппировать_3998" data-name="Сгруппировать 3998" transform="translate(-78.64 -70)">
    <path id="Контур_19" data-name="Контур 19" d="M-73.44-28a8.362,8.362,0,0,1,1.52.12,2.8,2.8,0,0,1,1.12.46,3.37,3.37,0,0,1,.86.92,9.606,9.606,0,0,1,.78,1.54l8.32,19.2a.566.566,0,0,0,.56.36h.48a.566.566,0,0,0,.56-.36l8.32-19.2a9.605,9.605,0,0,1,.78-1.54,3.37,3.37,0,0,1,.86-.92,2.8,2.8,0,0,1,1.1-.46,8.029,8.029,0,0,1,1.5-.12h4.28a3.377,3.377,0,0,1,2.8.94,5.436,5.436,0,0,1,.72,3.22V-.88q0,.88-.92.88h-4.08a.778.778,0,0,1-.88-.88V-21.76q0-.4-.32-.4h-.36a.5.5,0,0,0-.52.32L-54.04-3.92a11.912,11.912,0,0,1-.98,1.82A5.734,5.734,0,0,1-56.1-.88a3.462,3.462,0,0,1-1.32.68,6.714,6.714,0,0,1-1.74.2h-1.92a6.714,6.714,0,0,1-1.74-.2,3.462,3.462,0,0,1-1.32-.68A5.734,5.734,0,0,1-65.22-2.1a11.912,11.912,0,0,1-.98-1.82l-8.08-17.92a.5.5,0,0,0-.52-.32h-.36q-.32,0-.32.4V-.88a.778.778,0,0,1-.88.88h-4.08q-.92,0-.92-.88V-23.84a5.436,5.436,0,0,1,.72-3.22A3.435,3.435,0,0,1-77.8-28Zm67.08,0a4.062,4.062,0,0,1,2.88.82,3.472,3.472,0,0,1,.84,2.58V-.88q0,.88-.92.88H-7.92A.778.778,0,0,1-8.8-.88v-20.6q0-.8-.84-.8h-17q-.84,0-.84.8V-.88a.778.778,0,0,1-.88.88h-4.36q-.92,0-.92-.88V-24.6a3.472,3.472,0,0,1,.84-2.58A4.062,4.062,0,0,1-29.92-28Z" transform="translate(160 98)" fill="#ec231a"/>
    <path id="Контур_18" data-name="Контур 18" d="M.876,0H2.22V-4.68h2.4V0H5.964V-5.856H.876ZM10.44.1a2.914,2.914,0,0,0,3.072-3.012A2.911,2.911,0,0,0,10.44-5.94,2.924,2.924,0,0,0,7.368-2.916,2.921,2.921,0,0,0,10.44.1Zm0-1.224a1.7,1.7,0,0,1-1.7-1.788,1.7,1.7,0,0,1,1.7-1.812,1.7,1.7,0,0,1,1.7,1.812A1.7,1.7,0,0,1,10.44-1.128ZM14.916,0h1.3V-3.612h.024L17.748-.984h.876l1.512-2.652h.024V0h1.3V-5.856H20.148l-1.956,3.4h-.024l-1.944-3.4H14.916ZM25.932.1A2.914,2.914,0,0,0,29-2.916,2.911,2.911,0,0,0,25.932-5.94,2.924,2.924,0,0,0,22.86-2.916,2.921,2.921,0,0,0,25.932.1Zm0-1.224a1.7,1.7,0,0,1-1.7-1.788,1.7,1.7,0,0,1,1.7-1.812,1.7,1.7,0,0,1,1.7,1.812A1.7,1.7,0,0,1,25.932-1.128Zm13.7-.048H38.5v-4.68H37.152v4.68h-2.04v-4.68H33.768v4.68h-2.04v-4.68H30.384V0h8.052l.072,1.56h1.128ZM40.812,0h2.34c1.812,0,2.46-.852,2.46-2.028,0-1.2-.6-2.028-2.4-2.028H42.156v-1.8H40.812Zm1.344-1.14v-1.8h1.008c.708,0,1.08.288,1.08.924,0,.588-.372.876-1.08.876ZM50.112,0h2.916c1.68,0,2.232-.708,2.232-1.668A1.4,1.4,0,0,0,54-3.072v-.012a1.269,1.269,0,0,0,.96-1.344c0-.96-.72-1.428-2.04-1.428H50.112Zm1.32-3.492V-4.74H52.86c.42,0,.78.144.78.612,0,.444-.264.636-.912.636Zm0,2.376V-2.448H52.98c.588,0,.912.192.912.636,0,.492-.3.7-.96.7ZM7.176,10.824H6.108V6.144H2.076A15.153,15.153,0,0,1,1.86,8.892a6.879,6.879,0,0,1-.624,1.932H.276V13.56H1.4L1.476,12h4.5l.072,1.56H7.176Zm-4.584,0a7.6,7.6,0,0,0,.5-1.5,11.776,11.776,0,0,0,.264-2h1.4v3.5ZM10.9,12.1a2.914,2.914,0,0,0,3.072-3.012A2.911,2.911,0,0,0,10.9,6.06,2.924,2.924,0,0,0,7.824,9.084,2.921,2.921,0,0,0,10.9,12.1Zm0-1.224a1.7,1.7,0,0,1-1.7-1.788,1.707,1.707,0,1,1,3.408,0A1.7,1.7,0,0,1,10.9,10.872ZM18.012,12.1A2.941,2.941,0,0,0,20.532,11l-.924-.816a1.832,1.832,0,0,1-1.476.684,1.679,1.679,0,0,1-1.74-1.8,1.679,1.679,0,0,1,1.74-1.8,1.9,1.9,0,0,1,1.476.672l.912-.792A3.206,3.206,0,0,0,18.06,6.06a2.9,2.9,0,0,0-3.036,3.024A2.88,2.88,0,0,0,18.012,12.1Zm5.04-.1H24.4V7.32H26.22V6.144H21.228V7.32h1.824Zm5.088,2.376h1.392l3.216-8.232h-1.38l-1.5,3.924h-.024L28.236,6.144H26.8l2.4,5.532ZM33.864,12h1.344V7.32h2.4V12h1.344V6.144H33.864Zm6.84,0h1.344V9.7h2.568V12H45.96V6.144H44.616V8.556H42.048V6.144H40.7Zm9.732.1a2.914,2.914,0,0,0,3.072-3.012,3.072,3.072,0,0,0-6.144,0A2.921,2.921,0,0,0,50.436,12.1Zm0-1.224a1.7,1.7,0,0,1-1.7-1.788,1.707,1.707,0,1,1,3.408,0A1.7,1.7,0,0,1,50.436,10.872ZM54.912,12h1.3V8.388h.024l1.512,2.628h.876l1.512-2.652h.024V12h1.3V6.144H60.144l-1.956,3.4h-.024l-1.944-3.4H54.912Z" transform="translate(165 76)" fill="#4a4a4a"/>
  </g>
</svg>
